<?xml version="1.0" encoding="utf-8"?>
<!-- Generator: Adobe Illustrator 21.1.0, SVG Export Plug-In . SVG Version: 6.00 Build 0)  -->
<svg version="1.1" id="Capa_1" xmlns="http://www.w3.org/2000/svg" xmlns:xlink="http://www.w3.org/1999/xlink" x="0px" y="0px"
	 viewBox="0 0 497 135.8" style="enable-background:new 0 0 497 135.8;" xml:space="preserve">
<style type="text/css">
	.st0{fill:#FFFFFF;}
</style>
<path class="st0" d="M67.9,0C30.4,0,0,30.4,0,67.9s30.4,67.9,67.9,67.9s67.9-30.4,67.9-67.9S105.5,0,67.9,0z M104.9,84.7
	c0,13.2-10.7,24.1-24.1,24.1H32.6l42.4-67H33.2l8.4-14.7h60.1L59.2,94.3h21.5c5.2,0,9.5-4.3,9.5-9.5v-1h14.7
	C104.9,83.8,104.9,84.7,104.9,84.7z"/>
<g id="XMLID_45_">
	<rect id="XMLID_61_" x="215.9" y="41.7" class="st0" width="16.7" height="52.5"/>
	<path id="XMLID_59_" class="st0" d="M281.6,77.1l4.4,13.7c-3.5,2.4-8.8,4.7-15.4,4.7c-16.7,0-28.5-11.4-28.5-27.5
		s12.2-27.6,28.4-27.6c6.8,0,11.9,2.1,15.6,4.7l-4.5,14.1c-2.9-2.4-6.6-4-10.5-4c-7.9,0-12.3,5.5-12.3,12.5
		c0,7.7,5.2,12.9,12.9,12.9C275.6,80.8,279.3,79,281.6,77.1z"/>
	<rect id="XMLID_58_" x="345.5" y="41.7" class="st0" width="16.7" height="52.5"/>
	<path id="XMLID_56_" class="st0" d="M393.1,80.3h20.7v13.9h-41.6v-9.9l20.4-28.6h-19.9v-14h40.9v10.1L393.1,80.3z"/>
	<rect id="XMLID_55_" x="423.9" y="41.7" class="st0" width="16.7" height="52.5"/>
	<path id="XMLID_52_" class="st0" d="M470.3,60.6c4.6,0,8.3,1.1,10.1,1.9v-1.9c0-3.2-2.6-5.7-8-5.7c-4.6,0-9,1.2-13.2,3.3L453,47
		c5.7-3.7,12.7-6.4,21.4-6.4c18-0.1,22.6,9.2,22.6,21.2v32.4h-14.9l-0.9-2.9c-2.7,2.7-6.6,4.2-11.9,4.2c-10.3,0-19.4-6.2-19.4-17.6
		C449.9,67.4,457.9,60.6,470.3,60.6z M473.7,82.7c4,0,7-1.9,7-5.4c0-3.6-3.1-5.7-7.1-5.7s-7,2.1-7,5.7
		C466.6,80.8,469.8,82.7,473.7,82.7z"/>
	<g id="XMLID_49_">
		<path id="XMLID_50_" class="st0" d="M322.9,55.6v38.7h-17.1V55.6h-12.2V41.7h41.6v13.8L322.9,55.6L322.9,55.6z"/>
	</g>
	<g id="XMLID_46_">
		<path id="XMLID_47_" class="st0" d="M182.1,78.5v15.7h-16.6V41.7H206v13.8h-23.9v9.3H204v13.7H182.1L182.1,78.5z"/>
	</g>
</g>
</svg>
