<?xml version="1.0" encoding="utf-8"?>
<!-- Generator: Adobe Illustrator 21.1.0, SVG Export Plug-In . SVG Version: 6.00 Build 0)  -->
<svg version="1.1" id="Layer_1" xmlns="http://www.w3.org/2000/svg" xmlns:xlink="http://www.w3.org/1999/xlink" x="0px" y="0px"
	 viewBox="0 0 948.3 1240.7" style="enable-background:new 0 0 948.3 1240.7;" xml:space="preserve">
<style type="text/css">
	.st0{fill:#FFFFFF;}
</style>
<title>Asset 4</title>
<g id="Layer_2">
	<g id="Layer_1-2">
		<path class="st0" d="M439.4,729.1c0-13.9-11.2-25.1-25.1-25.1h-17.2v50.3h17.2c13.8,0.1,25-11,25.1-24.7
			C439.4,729.5,439.4,729.3,439.4,729.1z"/>
		<path class="st0" d="M206.4,873.6c-9.4,0-14.8,8.3-14.8,18s5.4,18,14.8,18s14.8-8.3,14.8-18S215.8,873.6,206.4,873.6z"/>
		<path class="st0" d="M929.5,620.5l-58.4-7l-83.8-182.9c-0.5-1.5-2.1-2.2-3.6-1.7c-0.8,0.3-1.5,0.9-1.7,1.7L739.2,513L721,459
			c-0.5-1.5-2.1-2.2-3.6-1.7c-0.8,0.3-1.5,0.9-1.7,1.7l-12.2,30.9l-9.8-6.8L672.5,429c-0.5-1.5-2.1-2.2-3.6-1.7
			c-0.8,0.3-1.5,0.9-1.7,1.7l-13.4,26.2l-14.3-9.9l-20.8-59.5c-0.5-1.6-2.3-2.5-3.9-2c-0.9,0.3-1.7,1-2,2l-11.2,33.1L483.4,217.5
			v-77.2l121.9-26.6v37.9l115.3-24.1c3.4-0.7,6.2-3.2,7.2-6.5l0.3-1.1c1.1-3.3,0.2-6.9-2.1-9.5l-28-30.1l28.4-38.8
			c3.2-4.3,2.2-10.3-2.1-13.5c-2.2-1.6-5-2.2-7.7-1.7l-65.9,14l1-40.5L468.3,40l0.9,94.6v83.5L323.4,439.3l-8-20.2
			c-0.6-1.6-2.5-2.4-4.1-1.8c-0.8,0.3-1.5,1-1.8,1.8l-16.2,41.3l-14.7,10.3L261.4,427c-0.6-1.6-2.5-2.4-4.1-1.8
			c-0.8,0.3-1.5,1-1.8,1.8l-14,35.5l-34.2-86.9c-0.6-1.6-2.5-2.4-4.1-1.8c-0.8,0.3-1.5,1-1.8,1.8l-39.9,101.3l-8.6-21.8
			c-0.5-1.5-2.1-2.2-3.6-1.7c-0.8,0.3-1.5,0.9-1.7,1.7L77.7,613.4l-58.9,7c-11.7,1.4-20,12-18.6,23.7c0.2,1.5,0.5,3,1,4.4
			C16.1,692,44.4,783.6,44.4,852.2c0,33.2-11.8,89.7-20.5,108.1c-4.8,10-1.1,22,8.5,27.6l428.2,249.9c6.6,3.8,14.7,3.9,21.3,0.1
			l435.5-249.8c9.9-5.7,13.5-18.1,8.4-28.2c-9.3-18.5-21.8-74.8-21.8-107.7c0-68.6,28.3-160.2,43.2-203.6
			c3.8-11.1-2.1-23.3-13.2-27.1C932.5,621,931,620.6,929.5,620.5z M620,120.5v-9.2l7.4-1.6L620,120.5z M649.5,102.9
			c0.2-0.2,0.3-0.5,0.4-0.8c0.1-0.2,0.2-0.3,0.2-0.4c0.1-0.3,0.2-0.5,0.2-0.8c0-0.2,0.1-0.3,0.1-0.5c0.1-0.3,0.1-0.6,0.1-0.9
			c0-0.1,0-0.3,0-0.4s0,0,0,0v-44l57.1-12.2L683,76.8c-2,2.8-1.8,6.6,0.5,9.1l27.3,29.4L629,132.6l20.4-29.5
			C649.5,103,649.5,103,649.5,102.9L649.5,102.9z M483.4,52.9l153-32.5v27.9c-0.1,0.7-0.1,1.4,0,2.1v42.9l-153,32.5V52.9z
			 M133.9,909.7c6.6,0,10.8-3.5,13.8-9.7l13,5.3c-4.4,11.1-13.7,16.9-26.8,16.9c-19.2,0-28.8-13.8-28.8-30.5s9.6-30.5,28.8-30.5
			c13.1,0,22.4,5.7,26.8,16.9l-13,5.3c-3-6.2-7.3-9.7-13.8-9.7c-9.1,0-13.6,7.6-13.6,18S124.7,909.7,133.9,909.7z M723,540.9
			l-5.5-10.8l2.8-1.8l4.4,8.8l4.6-8.8l2.8,1.8l-5.5,10.8l28.8,58.8l-19.8-2.4l-10.9-23.4l-9.6,21l-17.6-2.1L723,540.9z M461.2,428.6
			l6.1-3.8l9.5,18.8l9.8-18.8l6.1,3.8l-11.8,23l52.1,121.6l-39.6-4.7l-16.5-46.4l-16,45.7l-39.7,4.7l52-120.9L461.2,428.6z
			 M517.6,921.2h-14.5v-9.5c-4.3,6.2-10.7,10.4-18.3,10.4c-10.5,0-18.2-6-18.2-17.8v-42.2h14.5v37.8c0,7,3.5,9.7,8.4,9.7
			c7,0,13.5-8.4,13.5-24v-23.6h14.5L517.6,921.2z M521.6,997c0,2.5-2,4.5-4.5,4.5c-2.5,0-4.5-2-4.5-4.5c0-2.5,2-4.5,4.5-4.5
			c0,0,0,0,0,0C519.6,992.5,521.6,994.5,521.6,997L521.6,997z M505.2,997c0,2.5-2,4.5-4.5,4.5c-2.5,0-4.5-2-4.5-4.5
			c0-2.5,2-4.5,4.5-4.5l0,0C503.2,992.5,505.2,994.5,505.2,997L505.2,997z M472.6,997c0,2.5-2,4.5-4.5,4.5c-2.5,0-4.5-2-4.5-4.5
			c0-2.5,2-4.5,4.5-4.5l0,0C470.6,992.5,472.6,994.5,472.6,997L472.6,997z M464,729.1c0,24.5-17.8,45.4-42,49.3
			c-2.3,0.4-4.5,0.6-6.8,0.6h-18.1v13.4h11.9v24.5h-47.8v-24.5h11.2v-88.5h-11.2v-24.5h54.1C442.2,680.1,463.8,702.1,464,729.1z
			 M456.2,997c0,2.5-2,4.5-4.5,4.5c-2.5,0-4.5-2-4.5-4.5c0-2.5,2-4.5,4.5-4.5l0,0C454.2,992.5,456.2,994.5,456.2,997z M330,493.4
			l-9.6-18.7l5-3.1l7.7,15.3l8-15.3l5,3.1l-9.6,18.7l41.7,84.2l-30.4,3.6L333,550.8l-16.1,34.1l-34.4,4.1L330,493.4z M357.5,997
			c0,2.5-2,4.5-4.5,4.5c-2.5,0-4.5-2-4.5-4.5c0-2.5,2-4.5,4.5-4.5l0,0C355.5,992.5,357.5,994.5,357.5,997z M224.4,540.9l-5.5-10.8
			l2.9-1.8l4.4,8.8l4.6-8.8l2.9,1.8l-5.5,10.8l25.2,51.6l-17.5,2.1l-9.6-20.7L215.5,597l-19.9,2.4L224.4,540.9z M256.8,679.7
			c37.5,0,66.8,30,66.8,68.4c0,38.5-29.3,68.7-66.8,68.7c-36,0-65.2-30.8-65.2-68.7C191.6,710.4,220.9,679.7,256.8,679.7
			L256.8,679.7z M206.4,922.1c-19,0-30-13.4-30-30.5s11-30.5,30-30.5s30,13.4,30,30.5S225.4,922.1,206.4,922.1z M303.6,1001.5
			c-2.5,0-4.5-2-4.5-4.5c0-2.5,2-4.5,4.5-4.5c2.5,0,4.5,2,4.5,4.5l0,0C308.1,999.5,306.1,1001.5,303.6,1001.5z M320.1,1001.5
			c-2.5,0-4.5-2-4.5-4.5c0-2.5,2-4.5,4.5-4.5c2.5,0,4.5,2,4.5,4.5l0,0C324.6,999.5,322.6,1001.5,320.1,1001.5
			C320.1,1001.5,320.1,1001.5,320.1,1001.5L320.1,1001.5z M318.1,873.6c-7,0-12.8,8-12.8,24.6v23h-14.6v-39.4c0-6-2.9-8.2-7.3-8.2
			c-7.1,0-12.8,8.3-12.8,25.9v21.7h-14.5v-59.1h14.5v9.5c4.3-6.6,9.4-10.4,17-10.4c7.3,0,13.9,3.6,16.5,12.2
			c4.2-7.6,10.8-12.2,18-12.2c11,0,17.6,6.8,17.6,18.2v41.8h-14.5v-39.4C325.3,875.8,322.4,873.6,318.1,873.6L318.1,873.6z
			 M336.6,1001.5c-2.5,0-4.5-2-4.5-4.4c0-2.5,2-4.5,4.4-4.5c2.5,0,4.5,2,4.5,4.4c0,0,0,0,0,0C341,999.5,339,1001.5,336.6,1001.5
			C336.5,1001.5,336.5,1001.5,336.6,1001.5L336.6,1001.5z M356.1,1073.1c-5.8,0-10.8-4.1-11.8-9.8l5.2-3.2c1,3.7,3,7.1,6.8,7.1
			c2.7,0,4.5-1.3,4.5-4.4c0.1-5.7-14.4-4.8-14.3-15.7c0-5.1,4.1-9.3,9.2-9.3c0.1,0,0.2,0,0.3,0c4.3-0.1,8.2,2.4,9.9,6.4l-5.2,3.2
			c-1.3-2.6-2.7-3.7-4.8-3.7c-1.7-0.1-3.2,1.2-3.3,3c0,0.1,0,0.1,0,0.2c-0.1,6,14.7,5.4,14.6,15.7
			C367.2,1069.2,362.7,1073.2,356.1,1073.1L356.1,1073.1z M369.5,1001.5c-2.5,0-4.5-2-4.5-4.5c0-2.5,2-4.5,4.5-4.5
			c2.5,0,4.5,2,4.5,4.5l0,0C373.9,999.5,371.9,1001.5,369.5,1001.5C369.5,1001.5,369.4,1001.5,369.5,1001.5L369.5,1001.5z
			 M376,921.2h-14.6v-59.1H376v9.5c4.3-6.6,9.4-10.4,17-10.4c7.3,0,13.9,3.6,16.5,12.2c4.2-7.6,10.8-12.2,18-12.2
			c11,0,17.6,6.8,17.6,18.2v41.8h-14.5v-39.4c0-6-2.9-8.2-7.3-8.2c-7,0-12.8,8-12.8,24.6v23H396v-39.4c0-6-2.9-8.2-7.3-8.2
			c-7.1,0-12.8,8.3-12.8,25.9L376,921.2z M439.7,997c0,2.5-2,4.5-4.5,4.5c-2.5,0-4.5-2-4.5-4.5c0-2.5,2-4.5,4.5-4.5l0,0
			C437.7,992.5,439.7,994.5,439.7,997z M406.8,997c0,2.5-2,4.5-4.5,4.5c-2.5,0-4.5-2-4.5-4.5c0-2.5,2-4.5,4.5-4.5l0,0
			C404.8,992.5,406.8,994.5,406.8,997z M381.4,997c0-2.5,2-4.5,4.5-4.5c2.5,0,4.5,2,4.5,4.5c0,2.5-2,4.5-4.5,4.5l0,0
			C383.4,1001.5,381.4,999.5,381.4,997z M412.6,1060.2c-0.1,9.2-5.5,13.5-13,13.4s-12.9-4.4-12.8-13.7l0.2-21.5l6.4,0.1l-0.2,21.6
			c-0.1,5,2,7.5,6.4,7.6s6.5-2.4,6.6-7.4l0.2-21.6l6.4,0.1L412.6,1060.2z M418.8,1001.5c-2.5,0-4.5-2-4.5-4.5c0-2.5,2-4.5,4.5-4.5
			c2.5,0,4.5,2,4.5,4.5l0,0C423.3,999.5,421.3,1001.5,418.8,1001.5C418.8,1001.5,418.8,1001.5,418.8,1001.5L418.8,1001.5z
			 M439.8,1128.4v-3h4.8v7.3h-21.3v-4.3l15.9-15.1c0.8-1.1,1.3-2.5,1.3-3.9c0-3.5-2.8-6.3-6.4-6.3s-6.4,2.8-6.4,6.3v0.2h-4.2v-0.2
			c-0.3-5.8,4.2-10.7,10-11s10.7,4.2,11,10c0,0.3,0,0.6,0,0.9c0,2.5-0.9,4.9-2.4,6.9l-12.9,12.2L439.8,1128.4z M441.3,1052.3
			l-0.2,21.4l-6.4-0.1l0.4-34.6l7.2,0.1l7.9,21.7l8.4-21.5l7.2,0.1l-0.4,34.6l-6.4-0.1l0.2-21.4l-6.8,18.1l-4.6-0.1L441.3,1052.3z
			 M475.1,1120.4c0.1,6.7-5.3,12.2-12,12.3c-6.6,0-11.8-5.6-12-12.3v-9.5c-0.1-6.7,5.2-12.2,11.9-12.3c0,0,0,0,0.1,0
			c6.7,0,11.6,5.6,12,12.3V1120.4z M484.2,992.5c2.5,0,4.5,2,4.5,4.5c0,2.5-2,4.5-4.5,4.5c-2.5,0-4.5-2-4.5-4.5l0,0
			C479.7,994.5,481.8,992.5,484.2,992.5C484.2,992.5,484.2,992.5,484.2,992.5L484.2,992.5z M494,1132.7h-13.6v-4.5h4.6v-24.8h-4.6
			v-4.8h9.1v29.6h4.5V1132.7z M494.6,1074.3l-6.4-0.1l0.4-34.6l7.2,0.1l7.9,21.7l8.4-21.5l7.2,0.1l-0.4,34.6l-6.4-0.1l0.2-21.4
			l-6.8,18.1l-4.6-0.1l-6.4-18.3L494.6,1074.3z M505.3,1132.8h-5.4l17.5-29.6h-12.9v3.7h-4.8v-8.2h26L505.3,1132.8z M533.6,1001.5
			c-2.5,0-4.5-2-4.5-4.5c0-2.5,2-4.5,4.5-4.5c2.5,0,4.5,2,4.5,4.5c0,0,0,0,0,0C538.1,999.5,536.1,1001.5,533.6,1001.5z
			 M548.2,1074.9l-6.4-0.1l0.4-34.6l6.4,0.1L548.2,1074.9z M550.4,1001.5c-2.5,0-4.5-2-4.5-4.5c0-2.5,2-4.5,4.5-4.5
			c2.5,0,4.5,2,4.5,4.5c0,0,0,0,0,0C554.9,999.5,552.9,1001.5,550.4,1001.5z M554.2,897.6v23.5h-14.5v-59.1h14.5v9.5
			c4.3-6.2,10.7-10.4,18.3-10.4c10.5,0,18.2,6,18.2,17.8v42.2h-14.5v-37.8c0-7-3.5-9.7-8.4-9.7C560.6,873.6,554.2,882,554.2,897.6z
			 M587.8,997c0,2.5-2,4.5-4.5,4.5c-2.5,0-4.5-2-4.5-4.5c0-2.5,2-4.5,4.5-4.5c0,0,0,0,0,0C585.8,992.5,587.8,994.5,587.8,997z
			 M562.4,997c0-2.5,2-4.5,4.5-4.5c2.5,0,4.5,2,4.5,4.5c0,2.5-2,4.5-4.5,4.5c0,0,0,0,0,0C564.4,1001.5,562.4,999.5,562.4,997z
			 M593.1,1046.7l-9.6-0.1l-0.3,28.7l-6.4-0.1l0.3-28.7l-9.6-0.1l0.1-5.9l25.6,0.3L593.1,1046.7z M594.7,703.1h-60.5v33.8h47.2V761
			h-47.2v31.7h60.3V817l-98-0.2v-24.1h13.1v-89.6H497V679h97.7L594.7,703.1z M599.8,1001.5c-2.5,0-4.5-2-4.5-4.5
			c0-2.5,2-4.5,4.5-4.5c2.5,0,4.5,2,4.5,4.5c0,0,0,0,0,0C604.3,999.5,602.3,1001.5,599.8,1001.5
			C599.8,1001.5,599.8,1001.5,599.8,1001.5L599.8,1001.5z M574.9,578.2l41.1-84.8l-9.6-18.7l5-3.1l7.7,15.3l8-15.3l5,3.1l-9.6,18.7
			l46.4,96l-34-4.1L619,550.8l-13.9,31L574.9,578.2z M616.2,1001.5c-2.5,0-4.5-2-4.5-4.5c0-2.5,2-4.5,4.5-4.5c2.5,0,4.5,2,4.5,4.5
			c0,0,0,0,0,0C620.7,999.5,618.7,1001.5,616.2,1001.5C616.2,1001.5,616.2,1001.5,616.2,1001.5L616.2,1001.5z M624.7,921.2h-14.5
			v-59.1h14.5L624.7,921.2z M617.5,854.5c-5.2,0-9.4-4.2-9.4-9.4s4.2-9.4,9.4-9.4s9.4,4.2,9.4,9.4l0,0c0.1,5.1-3.9,9.3-9,9.4
			C617.7,854.5,617.6,854.5,617.5,854.5L617.5,854.5z M632.7,1001.5c-2.5,0-4.5-2-4.5-4.5c0-2.5,2-4.5,4.5-4.5c2.5,0,4.5,2,4.5,4.5
			c0,0,0,0,0,0C637.2,999.5,635.2,1001.5,632.7,1001.5C632.7,1001.5,632.7,1001.5,632.7,1001.5L632.7,1001.5z M672.6,922.1
			c-13.4,0-21.7-7.2-21.7-21.8v-25.8h-9.1v-12.4h9.2v-14.8l14.5-9.1v23.9h15.6v12.4h-15.6v25.5c0,7.3,2.8,9.6,7.7,9.6
			c2,0,3.9-0.5,5.6-1.4l3.4,11.7C679.2,921.4,675.9,922.1,672.6,922.1L672.6,922.1z M714,921.2h-14.5v-59.1H714L714,921.2z
			 M706.7,854.5c-5.2,0-9.4-4.2-9.4-9.4s4.2-9.4,9.4-9.4s9.4,4.2,9.4,9.4l0,0c0.1,5.1-3.9,9.3-9,9.4
			C707,854.5,706.9,854.5,706.7,854.5L706.7,854.5z M669.9,726.4V792h12v25h-49.5v-25h12.9v-87.8h-12.9V679l40.7,0.4l50.7,90.1
			v-65.3h-11.9V679h49.6v25.2h-13.1v87.3h13.1v25.3h-39.6L669.9,726.4z M789.8,896.3h-40.7c0.3,6.6,4.9,13.4,13.9,13.4
			c6.7,0,10.8-3,14.3-9.1l11.7,4.3c-4.6,10.4-12.5,17.2-26.8,17.2c-20.3,0-28.4-16.5-28.4-30.5s8.1-30.5,28.4-30.5
			c19.7,0,27.5,16.3,27.5,29.2L789.8,896.3z M827.5,922.1c-12.3,0-20.5-8.7-23.4-15.9l11.6-6.2c2.1,5.7,6.1,9.7,11.8,9.7
			c4.5,0,7.3-2,7.3-6.3c0-4.9-7.6-6-14.8-9c-6.4-2.7-12-6.8-12-15.9s7.4-17.2,18.9-17.2c8,0,14.9,3.9,18.5,9.6l-8.7,8
			c-2.3-3.1-5.9-5-9.8-5.2c-2.8,0-5.4,1.6-5.4,4.9c0,2.6,2.1,4.5,5.6,5.7c8.1,2.9,21.3,5.5,21.3,18.2
			C848.5,913.1,840.3,922.1,827.5,922.1L827.5,922.1z"/>
		<path class="st0" d="M256.8,792.2c24,0,42.2-19,42.2-44.1c0.1-11.5-4.2-22.5-12-30.9c-7.9-8.2-18.8-12.8-30.1-12.7
			c-22.8,0-40.6,19.1-40.6,43.6C216.2,772.8,234.1,792.2,256.8,792.2z"/>
		<path class="st0" d="M762.3,873.6c-7.4,0-11.7,5.6-12.8,11.2h25.4C773.6,879,770,873.6,762.3,873.6z"/>
		<path class="st0" d="M459.1,1127c3.5,2.3,8.2,1.3,10.5-2.2c0.8-1.3,1.3-2.8,1.2-4.4v-9.5c0-0.9-0.2-1.8-0.4-2.6L459.1,1127z"/>
		<path class="st0" d="M463.1,1103c-4.3,0.1-7.7,3.6-7.6,7.8v9.5c0,0.9,0.1,1.7,0.4,2.5l11-18.7C465.8,1103.4,464.5,1103,463.1,1103
			z"/>
	</g>
</g>
</svg>
